<svg width="303" height="118" viewBox="0 0 303 118" fill="none" xmlns="http://www.w3.org/2000/svg">
<g clip-path="url(#clip0_0_1)" filter="url(#filter0_d_0_1)">
<rect width="295" height="110" transform="translate(4)" fill="#FAFAFA"/>
<path d="M9.904 41.52C10.512 41.52 11.056 41.68 11.536 42C12.048 42.32 12.352 42.88 12.448 43.68C12.832 46.208 13.072 48.736 13.168 51.264C13.296 53.76 13.36 56.592 13.36 59.76C13.36 61.104 13.248 63.552 13.024 67.104C14.432 67.232 15.52 67.296 16.288 67.296C16.832 67.296 18.064 67.216 19.984 67.056C21.104 66.896 22.08 66.816 22.912 66.816C23.68 66.816 24.384 66.896 25.024 67.056C25.664 67.184 26.32 67.408 26.992 67.728C27.664 68.112 28 68.704 28 69.504C28 70.144 27.792 70.72 27.376 71.232C26.992 71.744 26.528 72 25.984 72C25.6 72 24.992 71.936 24.16 71.808C22.656 71.584 21.216 71.472 19.84 71.472C19.392 71.472 18.88 71.504 18.304 71.568C17.76 71.6 17.36 71.616 17.104 71.616C16.336 71.712 15.568 71.76 14.8 71.76C13.232 71.76 11.824 71.68 10.576 71.52C9.936 71.456 9.296 71.216 8.656 70.8C8.016 70.352 7.696 69.712 7.696 68.88C7.696 68.4 7.76 67.168 7.888 65.184C8.112 61.888 8.224 59.376 8.224 57.648C8.224 56.304 8.16 54.896 8.032 53.424C7.904 51.952 7.824 51.024 7.792 50.64C7.504 47.92 7.36 45.68 7.36 43.92C7.36 43.088 7.552 42.48 7.936 42.096C8.352 41.712 9.008 41.52 9.904 41.52ZM53.8341 41.472C55.9781 41.472 57.9301 41.744 59.6901 42.288C61.4501 42.8 62.8901 43.568 64.0101 44.592C66.0261 46.416 67.4341 48.416 68.2341 50.592C69.0661 52.736 69.4821 55.488 69.4821 58.848C69.4821 59.552 69.3861 60.192 69.1941 60.768C69.0341 61.344 68.7621 62.08 68.3781 62.976C67.8981 63.968 67.6101 64.752 67.5141 65.328C66.8741 66.448 65.8181 67.52 64.3461 68.544C62.9061 69.568 61.3381 70.4 59.6421 71.04C57.9461 71.68 56.4581 72 55.1781 72C49.0021 72 44.6021 69.888 41.9781 65.664C41.2421 64.48 40.6661 63.248 40.2501 61.968C39.8661 60.688 39.6741 59.44 39.6741 58.224C39.6741 54.96 40.2501 52.128 41.4021 49.728C42.5861 47.296 44.2181 45.408 46.2981 44.064C47.5461 43.328 48.8421 42.72 50.1861 42.24C51.5621 41.728 52.7781 41.472 53.8341 41.472ZM44.6661 58.368C44.6661 60.096 45.0501 61.52 45.8181 62.64C46.6181 63.76 47.8341 64.976 49.4661 66.288C50.8101 66.8 51.7221 67.136 52.2021 67.296C52.6821 67.424 53.2261 67.488 53.8341 67.488C57.0661 67.488 59.6421 66.608 61.5621 64.848C63.4821 63.088 64.4421 60.672 64.4421 57.6C64.4421 55.168 64.1701 53.248 63.6261 51.84C63.0821 50.432 62.1061 49.168 60.6981 48.048C59.9621 47.44 59.0181 46.992 57.8661 46.704C56.7461 46.416 55.5301 46.272 54.2181 46.272C52.2341 46.272 50.5221 46.864 49.0821 48.048C47.6421 49.2 46.5381 50.704 45.7701 52.56C45.0341 54.416 44.6661 56.352 44.6661 58.368ZM107.047 49.776C106.567 49.456 106.103 49.088 105.655 48.672C104.503 47.776 103.527 47.12 102.727 46.704C101.927 46.256 101.031 46.032 100.039 46.032C98.6314 46.032 97.2234 46.208 95.8154 46.56C94.4394 46.912 93.3034 47.408 92.4074 48.048C91.0634 49.04 90.1514 50.352 89.6714 51.984C89.1914 53.584 88.9514 55.552 88.9514 57.888C88.9514 60.352 89.7194 62.544 91.2554 64.464C92.1834 65.52 93.3034 66.336 94.6154 66.912C95.9594 67.488 97.3034 67.776 98.6474 67.776C101.751 67.776 104.055 66.912 105.559 65.184C106.647 63.808 107.191 62.128 107.191 60.144C107.191 59.792 106.935 59.552 106.423 59.424C105.911 59.296 105.175 59.232 104.215 59.232C103.735 59.232 102.983 59.168 101.959 59.04C101.671 59.008 101.351 58.976 100.999 58.944C100.679 58.912 100.343 58.896 99.9914 58.896C99.0634 58.896 98.3274 58.72 97.7834 58.368C97.2394 58.016 96.9674 57.568 96.9674 57.024C96.9674 56.256 97.2234 55.696 97.7354 55.344C98.2474 54.96 98.9354 54.768 99.7994 54.768C100.791 54.768 102.311 54.832 104.359 54.96C106.279 55.088 107.639 55.152 108.439 55.152C109.559 55.152 110.455 55.504 111.127 56.208C111.831 56.912 112.183 57.936 112.183 59.28C112.183 60.528 111.911 61.984 111.367 63.648C110.823 65.312 110.055 66.8 109.063 68.112C108.103 69.424 106.679 70.432 104.791 71.136C102.935 71.84 100.887 72.192 98.6474 72.192C96.8234 72.192 95.0154 71.872 93.2234 71.232C91.4314 70.56 89.9274 69.664 88.7114 68.544C87.2394 67.168 86.0714 65.536 85.2074 63.648C84.3754 61.728 83.9594 59.824 83.9594 57.936C83.9594 55.024 84.4714 52.304 85.4954 49.776C86.5514 47.216 88.1514 45.232 90.2954 43.824C91.2554 43.184 92.7274 42.656 94.7114 42.24C96.6954 41.824 98.4394 41.616 99.9434 41.616C102.055 41.616 103.975 42.08 105.703 43.008C107.431 43.936 108.775 45.088 109.735 46.464C110.119 47.04 110.311 47.552 110.311 48C110.311 48.512 110.087 48.992 109.639 49.44C109.191 49.888 108.743 50.112 108.295 50.112C108.103 50.112 107.879 50.08 107.623 50.016C107.367 49.952 107.175 49.872 107.047 49.776ZM149.356 48.912C149.196 48.784 148.684 48.416 147.82 47.808C146.956 47.168 146.124 46.72 145.324 46.464C144.524 46.176 143.676 46.032 142.78 46.032C141.404 46.032 140.092 46.208 138.844 46.56C137.596 46.88 136.524 47.376 135.628 48.048C133.004 49.968 131.692 53.248 131.692 57.888C131.692 59.904 132.172 61.68 133.132 63.216C134.092 64.72 135.324 65.872 136.828 66.672C138.332 67.472 139.884 67.872 141.484 67.872C143.084 67.872 144.476 67.632 145.66 67.152C146.844 66.64 147.788 65.984 148.492 65.184C149.068 64.448 149.452 63.632 149.644 62.736C149.836 61.808 149.932 60.8 149.932 59.712C149.932 59.392 149.676 59.168 149.164 59.04C148.652 58.912 147.916 58.848 146.956 58.848C146.476 58.848 145.628 58.88 144.412 58.944L142.204 59.04C141.276 59.04 140.54 58.864 139.996 58.512C139.452 58.16 139.18 57.696 139.18 57.12C139.18 55.648 140.124 54.912 142.012 54.912C143.548 54.912 145.164 54.96 146.86 55.056C148.972 55.12 150.412 55.152 151.18 55.152C152.3 55.152 153.196 55.504 153.868 56.208C154.572 56.912 154.924 57.936 154.924 59.28C154.924 60.56 154.652 62.032 154.108 63.696C153.564 65.328 152.812 66.8 151.852 68.112C150.892 69.392 149.5 70.368 147.676 71.04C145.852 71.68 143.788 72 141.484 72C139.596 72 137.74 71.696 135.916 71.088C134.124 70.48 132.636 69.632 131.452 68.544C129.98 67.168 128.812 65.536 127.948 63.648C127.116 61.728 126.7 59.824 126.7 57.936C126.7 55.12 127.292 52.432 128.476 49.872C129.66 47.28 131.34 45.264 133.516 43.824C134.476 43.184 135.868 42.656 137.692 42.24C139.548 41.824 141.212 41.616 142.684 41.616C147.068 41.616 150.188 42.944 152.044 45.6C152.428 46.176 152.62 46.688 152.62 47.136C152.62 47.648 152.396 48.128 151.948 48.576C151.5 49.024 151.052 49.248 150.604 49.248C150.412 49.248 150.188 49.216 149.932 49.152C149.676 49.088 149.484 49.008 149.356 48.912ZM173.281 72.144C172.321 72.144 171.649 71.856 171.265 71.28C170.913 70.704 170.737 69.888 170.737 68.832L170.785 62.592L170.737 61.632C170.577 58.592 170.497 56.08 170.497 54.096L170.689 48.384L170.737 45.504C170.737 44.544 170.769 43.808 170.833 43.296C170.897 42.784 171.105 42.368 171.457 42.048C171.809 41.728 172.369 41.568 173.137 41.568C174.097 41.568 174.785 41.808 175.201 42.288C175.617 42.736 175.825 43.52 175.825 44.64L175.777 45.648C175.649 48.208 175.585 50.144 175.585 51.456C175.585 52.896 175.617 54.592 175.681 56.544C175.745 58.464 175.793 59.824 175.825 60.624C175.985 64.048 176.065 66.992 176.065 69.456C176.065 70.416 175.857 71.104 175.441 71.52C175.057 71.936 174.337 72.144 173.281 72.144ZM215.989 45.36C216.469 45.936 216.805 46.4 216.997 46.752C217.189 47.104 217.285 47.44 217.285 47.76C217.285 48.144 217.029 48.592 216.517 49.104C216.037 49.616 215.557 49.872 215.077 49.872C214.437 49.872 213.925 49.776 213.541 49.584C213.157 49.392 212.837 49.088 212.581 48.672C212.069 47.904 211.445 47.248 210.709 46.704C209.973 46.128 208.821 45.84 207.253 45.84C205.909 45.84 204.373 46.144 202.645 46.752C200.949 47.36 199.733 48.112 198.997 49.008C198.357 49.808 197.797 51.024 197.317 52.656C196.869 54.288 196.645 55.872 196.645 57.408C196.645 59.264 197.045 60.976 197.845 62.544C198.677 64.08 199.861 65.312 201.397 66.24C202.965 67.168 204.837 67.632 207.013 67.632C208.197 67.632 209.413 67.408 210.661 66.96C211.941 66.48 213.045 65.712 213.973 64.656H213.925C214.501 64.048 215.221 63.744 216.085 63.744C216.597 63.744 217.077 63.968 217.525 64.416C218.005 64.864 218.245 65.312 218.245 65.76C218.245 66.24 218.165 66.672 218.005 67.056C217.877 67.408 217.621 67.808 217.237 68.256C215.925 69.728 214.373 70.736 212.581 71.28C210.789 71.824 208.645 72.096 206.149 72.096C203.941 72.096 201.701 71.568 199.429 70.512C197.189 69.456 195.461 68.176 194.245 66.672C193.605 65.744 192.981 64.416 192.373 62.688C191.797 60.928 191.509 59.504 191.509 58.416C191.509 55.632 191.925 52.992 192.757 50.496C193.621 47.968 194.901 45.952 196.597 44.448C197.717 43.424 199.333 42.656 201.445 42.144C203.557 41.632 205.493 41.376 207.253 41.376C209.397 41.376 211.077 41.68 212.293 42.288C213.541 42.864 214.773 43.888 215.989 45.36ZM253.073 45.024C253.073 44.096 253.281 43.296 253.697 42.624C254.145 41.92 254.801 41.568 255.665 41.568C256.401 41.568 257.057 41.712 257.633 42C258.209 42.288 258.497 42.768 258.497 43.44C258.497 44.752 258.433 46.592 258.305 48.96C258.177 51.264 258.113 52.976 258.113 54.096C258.113 55.856 258.177 58.208 258.305 61.152C258.433 63.968 258.497 66.032 258.497 67.344C258.497 68.4 258.481 69.184 258.449 69.696C258.449 70.208 258.161 70.72 257.585 71.232C257.041 71.712 256.193 71.952 255.041 71.952C254.433 71.952 253.905 71.856 253.457 71.664C253.041 71.44 252.753 71.2 252.593 70.944C251.089 69.12 248.897 66.016 246.017 61.632C242.785 56.736 240.145 52.992 238.097 50.4C238.353 52.704 238.481 55.52 238.481 58.848C238.481 60.32 238.449 62.24 238.385 64.608C238.353 66.944 238.289 68.48 238.193 69.216C238.065 70.144 237.777 70.864 237.329 71.376C236.913 71.856 236.241 72.096 235.313 72.096C234.609 72.096 234.081 71.904 233.729 71.52C233.409 71.104 233.217 70.4 233.153 69.408C233.121 68.096 233.201 66.128 233.393 63.504C233.425 63.088 233.473 62.368 233.537 61.344C233.601 60.32 233.633 59.408 233.633 58.608C233.633 56.4 233.521 53.872 233.297 51.024C233.105 47.888 233.009 45.568 233.009 44.064C233.009 43.296 233.281 42.704 233.825 42.288C234.401 41.872 235.057 41.664 235.793 41.664C236.433 41.664 237.105 41.824 237.809 42.144C240.561 45.6 244.289 50.752 248.993 57.6L253.505 64.512C253.537 64 253.553 63.28 253.553 62.352C253.553 60.72 253.521 58.96 253.457 57.072C253.393 55.184 253.345 53.904 253.313 53.232C253.153 50.128 253.073 47.392 253.073 45.024ZM296.552 63.312C296.552 64.816 296.2 66.112 295.496 67.2C294.824 68.256 293.704 69.232 292.136 70.128C291.08 70.768 289.848 71.248 288.44 71.568C287.032 71.888 285.608 72.048 284.168 72.048C282.696 72.048 280.872 71.568 278.696 70.608C277.128 69.84 275.88 68.928 274.952 67.872C274.056 66.816 273.608 65.664 273.608 64.416C273.608 63.552 273.8 62.928 274.184 62.544C274.568 62.128 275.192 61.92 276.056 61.92C276.504 61.92 276.968 62.112 277.448 62.496C277.928 62.848 278.216 63.2 278.312 63.552C278.76 64.864 279.544 65.872 280.664 66.576C281.784 67.248 283.176 67.584 284.84 67.584C286.76 67.584 288.36 67.232 289.64 66.528C290.952 65.824 291.608 64.88 291.608 63.696C291.608 62.544 290.904 61.52 289.496 60.624C288.088 59.728 286.648 59.104 285.176 58.752C283.064 58.176 281.192 57.488 279.56 56.688C277.864 55.856 276.6 54.832 275.768 53.616C274.936 52.4 274.52 51.12 274.52 49.776C274.52 48.528 274.952 47.264 275.816 45.984C276.68 44.672 277.704 43.728 278.888 43.152C279.528 42.832 280.616 42.496 282.152 42.144C283.72 41.76 284.856 41.568 285.56 41.568C286.456 41.568 287.4 41.68 288.392 41.904C289.384 42.128 290.232 42.448 290.936 42.864C292.344 43.664 293.384 44.384 294.056 45.024C294.728 45.664 295.064 46.464 295.064 47.424C295.064 48 294.84 48.512 294.392 48.96C293.976 49.408 293.24 49.632 292.184 49.632C291.928 49.632 291.672 49.52 291.416 49.296C291.16 49.072 290.84 48.736 290.456 48.288C289.944 47.616 289.448 47.168 288.968 46.944C288.456 46.752 287.816 46.576 287.048 46.416C286.28 46.224 285.56 46.128 284.888 46.128C284.12 46.128 283.32 46.288 282.488 46.608C281.656 46.928 280.952 47.392 280.376 48C279.832 48.576 279.56 49.248 279.56 50.016C279.56 50.656 279.848 51.216 280.424 51.696C281.032 52.144 281.752 52.512 282.584 52.8C283.544 53.184 284.584 53.52 285.704 53.808C287.176 54.256 288.376 54.672 289.304 55.056C290.264 55.408 291.192 55.856 292.088 56.4C293.656 57.328 294.792 58.288 295.496 59.28C296.2 60.24 296.552 61.584 296.552 63.312Z" fill="#2C3640"/>
<path d="M51 8H209V103H51V8Z" stroke="#2C3640" stroke-width="5" stroke-linecap="round" stroke-linejoin="round"/>
<rect x="39" y="47" width="15" height="20" fill="#FAFAFA"/>
<g clip-path="url(#clip1_0_1)">
<rect width="8" height="21" transform="translate(206 46)" fill="#FAFAFA"/>
<path d="M211.36 66.9305C211.315 66.7468 210.732 66.8312 210.589 66.8312C210.421 66.8312 210.33 66.9305 210.159 66.9305C209.981 66.9305 209.802 66.9305 209.624 66.9305" stroke="#FAFAFA" stroke-linecap="round"/>
<path d="M206.251 46.7394C206.263 46.6435 206.861 46.6305 206.774 46.4804C206.746 46.4307 206.382 46.151 206.499 46.1441C206.996 46.1149 207.488 46.261 207.987 46.0945" stroke="#FAFAFA" stroke-linecap="round"/>
<path d="M206.449 46.6898C206.449 46.4561 206.627 46.1441 206.846 46.1441C206.901 46.1441 207.163 46.0945 206.984 46.0945C206.905 46.0945 206.53 46.0945 206.796 46.0945" stroke="#FAFAFA" stroke-linecap="round"/>
</g>
<path d="M210.964 67.0297C210.777 67.0297 210.627 67.1289 210.418 67.1289C210.23 67.1289 210.046 67.0793 209.85 67.0793C209.525 67.0793 209.15 67.0297 208.803 67.0297C208.614 67.0297 208.424 67.0297 208.235 67.0297C208.15 67.0297 208.061 67.0229 207.976 67.0297C207.871 67.038 207.867 67.1289 207.739 67.1289C207.584 67.1289 207.451 67.0356 207.304 67.0297C207.218 67.0262 207.129 67.0391 207.044 67.0297C206.979 67.0224 206.934 66.8639 206.829 66.9332C206.687 67.0284 207.171 66.9801 207.342 66.9801C207.561 66.9801 207.779 66.9801 207.998 66.9801C208.175 66.9801 208.345 67.0297 208.505 67.0297C208.615 67.0297 209.026 67.0297 208.693 67.0297C208.591 67.0297 208.546 67.1189 208.671 67.1289C208.765 67.1364 208.863 67.1289 208.957 67.1289C209.105 67.1289 209.365 67.1785 209.486 67.0903C209.581 67.0217 209.903 67.0793 210.021 67.0793C210.236 67.0793 210.451 67.0793 210.666 67.0793" stroke="#FAFAFA" stroke-linecap="round"/>
<path d="M206.598 67.1289C206.621 66.9325 206.959 66.9484 207.113 66.9828C207.181 66.9979 207.194 67.0758 207.281 67.0793C207.377 67.0831 207.473 67.0793 207.568 67.0793C207.956 67.0793 208.344 67.0793 208.731 67.0793" stroke="#FAFAFA" stroke-linecap="round"/>
<path d="M206.3 66.8808C206.52 66.9083 206.762 66.9305 207.006 66.9305C207.168 66.9305 206.862 67.0215 206.824 67.0324C206.762 67.0502 207.073 67.0793 207.116 67.0793C207.609 67.0793 208.101 67.0793 208.593 67.0793C209.097 67.0793 209.584 67.1289 210.093 67.1289C210.333 67.1289 210.574 67.1289 210.815 67.1289C210.957 67.1289 211.037 67.0297 211.173 67.0297C211.271 67.0297 211.465 67.0689 211.509 66.9801" stroke="#FAFAFA" stroke-linecap="round"/>
<path d="M211.36 45.8961C211.336 46.0928 210.934 45.9578 210.793 45.998C210.577 46.0596 210.429 46.0945 210.192 46.0945C209.747 46.0945 209.303 46.0945 208.858 46.0945C208.657 46.0945 208.396 46.0431 208.235 46.1717C208.163 46.2297 207.743 46.2433 207.64 46.2433C207.409 46.2433 207.198 46.2929 206.973 46.2929C206.869 46.2929 206.603 46.246 206.521 46.315C206.423 46.3974 206.395 46.3922 206.251 46.3922" stroke="#FAFAFA" stroke-linecap="round"/>
<path d="M53.6475 66.878C53.4201 66.8914 53.2643 67.0068 53.0178 67.0068C52.7935 67.0068 52.5693 67.0068 52.3451 67.0068C51.8912 67.0068 51.3597 67.0843 50.9138 67.0032C50.043 66.8449 49.1444 66.8136 48.2374 66.8136" stroke="#FAFAFA" stroke-linecap="round"/>
<rect x="32" y="4" width="17" height="107" fill="#FAFAFA"/>
<rect x="211" y="4" width="11" height="103" fill="#FAFAFA"/>
<path d="M53.9174 46.9655C53.829 46.8869 53.7071 46.8724 53.5899 46.8724C53.4764 46.8724 53.267 46.8414 53.4986 46.8414C53.5976 46.8414 53.4273 46.7483 53.3727 46.7483C53.2666 46.7483 53.1793 46.7793 53.0797 46.7793C52.655 46.7793 52.2099 46.8104 51.7768 46.8104C51.5642 46.8104 51.3516 46.8104 51.1391 46.8104C50.9108 46.8104 50.7557 46.7483 50.5186 46.7483C50.2989 46.7483 50.0938 46.8414 49.8774 46.8414C49.6421 46.8414 49.3165 46.8959 49.0915 46.9655C48.991 46.9966 48.7746 47.0205 48.7054 47.0896" stroke="#FAFAFA" stroke-linecap="round"/>
<path d="M63 19.5C62.7239 19.5 62.5 19.7239 62.5 20C62.5 20.2761 62.7239 20.5 63 20.5V19.5ZM198 20.5C198.276 20.5 198.5 20.2761 198.5 20C198.5 19.7239 198.276 19.5 198 19.5V20.5ZM198 93.5C198.276 93.5 198.5 93.2761 198.5 93C198.5 92.7239 198.276 92.5 198 92.5V93.5ZM63 92.5C62.7239 92.5 62.5 92.7239 62.5 93C62.5 93.2761 62.7239 93.5 63 93.5V92.5ZM69.75 93.5C70.0261 93.5 70.25 93.2761 70.25 93C70.25 92.7239 70.0261 92.5 69.75 92.5V93.5ZM83.25 92.5C82.9739 92.5 82.75 92.7239 82.75 93C82.75 93.2761 82.9739 93.5 83.25 93.5V92.5ZM96.75 93.5C97.0261 93.5 97.25 93.2761 97.25 93C97.25 92.7239 97.0261 92.5 96.75 92.5V93.5ZM110.25 92.5C109.974 92.5 109.75 92.7239 109.75 93C109.75 93.2761 109.974 93.5 110.25 93.5V92.5ZM123.75 93.5C124.026 93.5 124.25 93.2761 124.25 93C124.25 92.7239 124.026 92.5 123.75 92.5V93.5ZM137.25 92.5C136.974 92.5 136.75 92.7239 136.75 93C136.75 93.2761 136.974 93.5 137.25 93.5V92.5ZM150.75 93.5C151.026 93.5 151.25 93.2761 151.25 93C151.25 92.7239 151.026 92.5 150.75 92.5V93.5ZM164.25 92.5C163.974 92.5 163.75 92.7239 163.75 93C163.75 93.2761 163.974 93.5 164.25 93.5V92.5ZM177.75 93.5C178.026 93.5 178.25 93.2761 178.25 93C178.25 92.7239 178.026 92.5 177.75 92.5V93.5ZM191.25 92.5C190.974 92.5 190.75 92.7239 190.75 93C190.75 93.2761 190.974 93.5 191.25 93.5V92.5ZM191.25 19.5C190.974 19.5 190.75 19.7239 190.75 20C190.75 20.2761 190.974 20.5 191.25 20.5V19.5ZM177.75 20.5C178.026 20.5 178.25 20.2761 178.25 20C178.25 19.7239 178.026 19.5 177.75 19.5V20.5ZM164.25 19.5C163.974 19.5 163.75 19.7239 163.75 20C163.75 20.2761 163.974 20.5 164.25 20.5V19.5ZM150.75 20.5C151.026 20.5 151.25 20.2761 151.25 20C151.25 19.7239 151.026 19.5 150.75 19.5V20.5ZM137.25 19.5C136.974 19.5 136.75 19.7239 136.75 20C136.75 20.2761 136.974 20.5 137.25 20.5V19.5ZM123.75 20.5C124.026 20.5 124.25 20.2761 124.25 20C124.25 19.7239 124.026 19.5 123.75 19.5V20.5ZM110.25 19.5C109.974 19.5 109.75 19.7239 109.75 20C109.75 20.2761 109.974 20.5 110.25 20.5V19.5ZM96.75 20.5C97.0261 20.5 97.25 20.2761 97.25 20C97.25 19.7239 97.0261 19.5 96.75 19.5V20.5ZM83.25 19.5C82.9739 19.5 82.75 19.7239 82.75 20C82.75 20.2761 82.9739 20.5 83.25 20.5V19.5ZM69.75 20.5C70.0261 20.5 70.25 20.2761 70.25 20C70.25 19.7239 70.0261 19.5 69.75 19.5V20.5ZM63 93.5H69.75V92.5H63V93.5ZM83.25 93.5H96.75V92.5H83.25V93.5ZM110.25 93.5H123.75V92.5H110.25V93.5ZM137.25 93.5H150.75V92.5H137.25V93.5ZM164.25 93.5H177.75V92.5H164.25V93.5ZM191.25 93.5H198V92.5H191.25V93.5ZM198 19.5H191.25V20.5H198V19.5ZM177.75 19.5H164.25V20.5H177.75V19.5ZM150.75 19.5H137.25V20.5H150.75V19.5ZM123.75 19.5H110.25V20.5H123.75V19.5ZM96.75 19.5H83.25V20.5H96.75V19.5ZM69.75 19.5H63V20.5H69.75V19.5ZM63 19C62.4477 19 62 19.4477 62 20C62 20.5523 62.4477 21 63 21V19ZM198 21C198.552 21 199 20.5523 199 20C199 19.4477 198.552 19 198 19V21ZM198 94C198.552 94 199 93.5523 199 93C199 92.4477 198.552 92 198 92V94ZM63 92C62.4477 92 62 92.4477 62 93C62 93.5523 62.4477 94 63 94V92ZM69.75 94C70.3023 94 70.75 93.5523 70.75 93C70.75 92.4477 70.3023 92 69.75 92V94ZM83.25 92C82.6977 92 82.25 92.4477 82.25 93C82.25 93.5523 82.6977 94 83.25 94V92ZM96.75 94C97.3023 94 97.75 93.5523 97.75 93C97.75 92.4477 97.3023 92 96.75 92V94ZM110.25 92C109.698 92 109.25 92.4477 109.25 93C109.25 93.5523 109.698 94 110.25 94V92ZM123.75 94C124.302 94 124.75 93.5523 124.75 93C124.75 92.4477 124.302 92 123.75 92V94ZM137.25 92C136.698 92 136.25 92.4477 136.25 93C136.25 93.5523 136.698 94 137.25 94V92ZM150.75 94C151.302 94 151.75 93.5523 151.75 93C151.75 92.4477 151.302 92 150.75 92V94ZM164.25 92C163.698 92 163.25 92.4477 163.25 93C163.25 93.5523 163.698 94 164.25 94V92ZM177.75 94C178.302 94 178.75 93.5523 178.75 93C178.75 92.4477 178.302 92 177.75 92V94ZM191.25 92C190.698 92 190.25 92.4477 190.25 93C190.25 93.5523 190.698 94 191.25 94V92ZM191.25 19C190.698 19 190.25 19.4477 190.25 20C190.25 20.5523 190.698 21 191.25 21V19ZM177.75 21C178.302 21 178.75 20.5523 178.75 20C178.75 19.4477 178.302 19 177.75 19V21ZM164.25 19C163.698 19 163.25 19.4477 163.25 20C163.25 20.5523 163.698 21 164.25 21V19ZM150.75 21C151.302 21 151.75 20.5523 151.75 20C151.75 19.4477 151.302 19 150.75 19V21ZM137.25 19C136.698 19 136.25 19.4477 136.25 20C136.25 20.5523 136.698 21 137.25 21V19ZM123.75 21C124.302 21 124.75 20.5523 124.75 20C124.75 19.4477 124.302 19 123.75 19V21ZM110.25 19C109.698 19 109.25 19.4477 109.25 20C109.25 20.5523 109.698 21 110.25 21V19ZM96.75 21C97.3023 21 97.75 20.5523 97.75 20C97.75 19.4477 97.3023 19 96.75 19V21ZM83.25 19C82.6977 19 82.25 19.4477 82.25 20C82.25 20.5523 82.6977 21 83.25 21V19ZM69.75 21C70.3023 21 70.75 20.5523 70.75 20C70.75 19.4477 70.3023 19 69.75 19V21ZM63 94H69.75V92H63V94ZM83.25 94H96.75V92H83.25V94ZM110.25 94H123.75V92H110.25V94ZM137.25 94H150.75V92H137.25V94ZM164.25 94H177.75V92H164.25V94ZM191.25 94H198V92H191.25V94ZM198 19H191.25V21H198V19ZM177.75 19H164.25V21H177.75V19ZM150.75 19H137.25V21H150.75V19ZM123.75 19H110.25V21H123.75V19ZM96.75 19H83.25V21H96.75V19ZM69.75 19H63V21H69.75V19Z" fill="#2C3640" mask="url(#path-15-inside-1_0_1)"/>
</g>
<defs>
<filter id="filter0_d_0_1" x="0" y="0" width="303" height="118" filterUnits="userSpaceOnUse" color-interpolation-filters="sRGB">
<feFlood flood-opacity="0" result="BackgroundImageFix"/>
<feColorMatrix in="SourceAlpha" type="matrix" values="0 0 0 0 0 0 0 0 0 0 0 0 0 0 0 0 0 0 127 0" result="hardAlpha"/>
<feOffset dy="4"/>
<feGaussianBlur stdDeviation="2"/>
<feComposite in2="hardAlpha" operator="out"/>
<feColorMatrix type="matrix" values="0 0 0 0 0 0 0 0 0 0 0 0 0 0 0 0 0 0 0.25 0"/>
<feBlend mode="normal" in2="BackgroundImageFix" result="effect1_dropShadow_0_1"/>
<feBlend mode="normal" in="SourceGraphic" in2="effect1_dropShadow_0_1" result="shape"/>
</filter>
<clipPath id="clip0_0_1">
<rect width="295" height="110" fill="white" transform="translate(4)"/>
</clipPath>
<clipPath id="clip1_0_1">
<rect width="8" height="21" fill="white" transform="translate(206 46)"/>
</clipPath>
</defs>
</svg>
